<?xml version="1.0" encoding="UTF-8" standalone="no"?>
<!DOCTYPE svg PUBLIC "-//W3C//DTD SVG 1.1//EN"
 "http://www.w3.org/Graphics/SVG/1.1/DTD/svg11.dtd">
<!-- Generated by graphviz version 2.43.0 (0)
 -->
<!-- Title: ArbolB Pages: 1 -->
<svg width="884pt" height="230pt"
 viewBox="0.00 0.00 884.00 230.00" xmlns="http://www.w3.org/2000/svg" xmlns:xlink="http://www.w3.org/1999/xlink">
<g id="graph0" class="graph" transform="scale(1 1) rotate(0) translate(4 226)">
<title>ArbolB</title>
<polygon fill="white" stroke="transparent" points="-4,4 -4,-226 880,-226 880,4 -4,4"/>
<!-- 1 -->
<g id="node1" class="node">
<title>1</title>
<polygon fill="lightgreen" stroke="black" points="343,-183.5 343,-221.5 555,-221.5 555,-183.5 343,-183.5"/>
<text text-anchor="middle" x="353" y="-198.8" font-family="Times,serif" font-size="14.00"> </text>
<polyline fill="none" stroke="black" points="363,-183.5 363,-221.5 "/>
<text text-anchor="middle" x="385" y="-206.3" font-family="Times,serif" font-size="14.00">1942</text>
<text text-anchor="middle" x="385" y="-191.3" font-family="Times,serif" font-size="14.00">C: 1</text>
<polyline fill="none" stroke="black" points="407,-183.5 407,-221.5 "/>
<text text-anchor="middle" x="417" y="-198.8" font-family="Times,serif" font-size="14.00"> </text>
<polyline fill="none" stroke="black" points="427,-183.5 427,-221.5 "/>
<text text-anchor="middle" x="449" y="-206.3" font-family="Times,serif" font-size="14.00">2008</text>
<text text-anchor="middle" x="449" y="-191.3" font-family="Times,serif" font-size="14.00">C: 1</text>
<polyline fill="none" stroke="black" points="471,-183.5 471,-221.5 "/>
<text text-anchor="middle" x="481" y="-198.8" font-family="Times,serif" font-size="14.00"> </text>
<polyline fill="none" stroke="black" points="491,-183.5 491,-221.5 "/>
<text text-anchor="middle" x="513" y="-206.3" font-family="Times,serif" font-size="14.00">2015</text>
<text text-anchor="middle" x="513" y="-191.3" font-family="Times,serif" font-size="14.00">C: 2</text>
<polyline fill="none" stroke="black" points="535,-183.5 535,-221.5 "/>
<text text-anchor="middle" x="545" y="-198.8" font-family="Times,serif" font-size="14.00"> </text>
</g>
<!-- 2 -->
<g id="node2" class="node">
<title>2</title>
<polygon fill="lightgreen" stroke="black" points="0,-0.5 0,-38.5 176,-38.5 176,-0.5 0,-0.5"/>
<text text-anchor="middle" x="22" y="-23.3" font-family="Times,serif" font-size="14.00">1808</text>
<text text-anchor="middle" x="22" y="-8.3" font-family="Times,serif" font-size="14.00">C: 1</text>
<polyline fill="none" stroke="black" points="44,-0.5 44,-38.5 "/>
<text text-anchor="middle" x="66" y="-23.3" font-family="Times,serif" font-size="14.00">1813</text>
<text text-anchor="middle" x="66" y="-8.3" font-family="Times,serif" font-size="14.00">C: 1</text>
<polyline fill="none" stroke="black" points="88,-0.5 88,-38.5 "/>
<text text-anchor="middle" x="110" y="-23.3" font-family="Times,serif" font-size="14.00">1915</text>
<text text-anchor="middle" x="110" y="-8.3" font-family="Times,serif" font-size="14.00">C: 1</text>
<polyline fill="none" stroke="black" points="132,-0.5 132,-38.5 "/>
<text text-anchor="middle" x="154" y="-23.3" font-family="Times,serif" font-size="14.00">1937</text>
<text text-anchor="middle" x="154" y="-8.3" font-family="Times,serif" font-size="14.00">C: 1</text>
</g>
<!-- 1&#45;&gt;2 -->
<g id="edge1" class="edge">
<title>1:f0&#45;&gt;2</title>
<path fill="none" stroke="black" d="M353,-183C353,-101.91 261.71,-60.03 186.29,-39.27"/>
<polygon fill="black" stroke="black" points="186.8,-35.78 176.24,-36.6 185.01,-42.55 186.8,-35.78"/>
</g>
<!-- 3 -->
<g id="node3" class="node">
<title>3</title>
<polygon fill="lightgreen" stroke="black" points="248,-0.5 248,-38.5 424,-38.5 424,-0.5 248,-0.5"/>
<text text-anchor="middle" x="270" y="-23.3" font-family="Times,serif" font-size="14.00">1949</text>
<text text-anchor="middle" x="270" y="-8.3" font-family="Times,serif" font-size="14.00">C: 1</text>
<polyline fill="none" stroke="black" points="292,-0.5 292,-38.5 "/>
<text text-anchor="middle" x="314" y="-23.3" font-family="Times,serif" font-size="14.00">1960</text>
<text text-anchor="middle" x="314" y="-8.3" font-family="Times,serif" font-size="14.00">C: 1</text>
<polyline fill="none" stroke="black" points="336,-0.5 336,-38.5 "/>
<text text-anchor="middle" x="358" y="-23.3" font-family="Times,serif" font-size="14.00">1972</text>
<text text-anchor="middle" x="358" y="-8.3" font-family="Times,serif" font-size="14.00">C: 1</text>
<polyline fill="none" stroke="black" points="380,-0.5 380,-38.5 "/>
<text text-anchor="middle" x="402" y="-23.3" font-family="Times,serif" font-size="14.00">1992</text>
<text text-anchor="middle" x="402" y="-8.3" font-family="Times,serif" font-size="14.00">C: 1</text>
</g>
<!-- 1&#45;&gt;3 -->
<g id="edge2" class="edge">
<title>1:f1&#45;&gt;3</title>
<path fill="none" stroke="black" d="M417,-183C417,-130.27 382.42,-77.07 358.45,-46.53"/>
<polygon fill="black" stroke="black" points="361,-44.12 352,-38.53 355.55,-48.52 361,-44.12"/>
</g>
<!-- 4 -->
<g id="node4" class="node">
<title>4</title>
<polygon fill="lightgreen" stroke="black" points="496,-0.5 496,-38.5 628,-38.5 628,-0.5 496,-0.5"/>
<text text-anchor="middle" x="518" y="-23.3" font-family="Times,serif" font-size="14.00">2011</text>
<text text-anchor="middle" x="518" y="-8.3" font-family="Times,serif" font-size="14.00">C: 1</text>
<polyline fill="none" stroke="black" points="540,-0.5 540,-38.5 "/>
<text text-anchor="middle" x="562" y="-23.3" font-family="Times,serif" font-size="14.00">2012</text>
<text text-anchor="middle" x="562" y="-8.3" font-family="Times,serif" font-size="14.00">C: 1</text>
<polyline fill="none" stroke="black" points="584,-0.5 584,-38.5 "/>
<text text-anchor="middle" x="606" y="-23.3" font-family="Times,serif" font-size="14.00">2014</text>
<text text-anchor="middle" x="606" y="-8.3" font-family="Times,serif" font-size="14.00">C: 1</text>
</g>
<!-- 1&#45;&gt;4 -->
<g id="edge3" class="edge">
<title>1:f2&#45;&gt;4</title>
<path fill="none" stroke="black" d="M481,-183C481,-130.27 515.58,-77.07 539.55,-46.53"/>
<polygon fill="black" stroke="black" points="542.45,-48.52 546,-38.53 537,-44.12 542.45,-48.52"/>
</g>
<!-- 5 -->
<g id="node5" class="node">
<title>5</title>
<polygon fill="lightgreen" stroke="black" points="700,-0.5 700,-38.5 876,-38.5 876,-0.5 700,-0.5"/>
<text text-anchor="middle" x="722" y="-23.3" font-family="Times,serif" font-size="14.00">2016</text>
<text text-anchor="middle" x="722" y="-8.3" font-family="Times,serif" font-size="14.00">C: 1</text>
<polyline fill="none" stroke="black" points="744,-0.5 744,-38.5 "/>
<text text-anchor="middle" x="766" y="-23.3" font-family="Times,serif" font-size="14.00">2017</text>
<text text-anchor="middle" x="766" y="-8.3" font-family="Times,serif" font-size="14.00">C: 1</text>
<polyline fill="none" stroke="black" points="788,-0.5 788,-38.5 "/>
<text text-anchor="middle" x="810" y="-23.3" font-family="Times,serif" font-size="14.00">2018</text>
<text text-anchor="middle" x="810" y="-8.3" font-family="Times,serif" font-size="14.00">C: 1</text>
<polyline fill="none" stroke="black" points="832,-0.5 832,-38.5 "/>
<text text-anchor="middle" x="854" y="-23.3" font-family="Times,serif" font-size="14.00">2019</text>
<text text-anchor="middle" x="854" y="-8.3" font-family="Times,serif" font-size="14.00">C: 1</text>
</g>
<!-- 1&#45;&gt;5 -->
<g id="edge4" class="edge">
<title>1:f3&#45;&gt;5</title>
<path fill="none" stroke="black" d="M545,-183C545,-106.54 629.17,-63.79 698.43,-41.56"/>
<polygon fill="black" stroke="black" points="699.58,-44.87 708.1,-38.56 697.51,-38.18 699.58,-44.87"/>
</g>
</g>
</svg>
